<?xml version="1.0" encoding="utf-8"?>
<!-- Generator: Adobe Illustrator 21.0.2, SVG Export Plug-In . SVG Version: 6.00 Build 0)  -->
<svg version="1.1" id="Layer_1" xmlns="http://www.w3.org/2000/svg" xmlns:xlink="http://www.w3.org/1999/xlink" x="0px" y="0px"
	 width="470.6px" height="65.8px" viewBox="0 0 470.6 65.8" style="enable-background:new 0 0 470.6 65.8;" xml:space="preserve">
<style type="text/css">
	.st0{fill:#FFFFFF;}
</style>
<g>
	<path class="st0" d="M19.1,63.9c5.5,0,10.2-1.8,13.6-5.1c3.5-3.5,5.7-9,5.7-16.3V1.1h-7.1v41.5c0,9.8-5.1,14.9-12.1,14.9
		c-6.5,0-10.4-3.1-14.2-8.9L0,53C3.9,59.3,9.8,63.9,19.1,63.9"/>
	<polygon class="st0" points="143.3,63.1 150.4,63.1 150.4,41.2 172.8,1.1 165.2,1.1 146.9,34.9 128.8,1.1 120.8,1.1 143.3,41.3 	
		"/>
	<rect x="305.2" y="1.1" class="st0" width="7" height="62"/>
	<path class="st0" d="M99.2,41.2H72.5L85.9,8.8L99.2,41.2z M115.2,63.1l-26-62.4h-6.5L56.8,63.1h6.6L70,47.3l31.8,0l6.5,15.8H115.2z
		"/>
	<polygon class="st0" points="394.4,63.1 394.4,1.1 387.4,1.1 387.4,52.6 345.9,1.1 338.9,1.1 338.9,63.1 345.9,63.1 345.9,12 
		387.4,63.1 	"/>
	<path class="st0" d="M445.7,64.1c10.4,0,19.1-4.3,24.9-9.5V35h-22.8v6.3h16.1v10.3c-4.2,3.5-10.8,6.2-17.9,6.2
		c-15.1,0-24.5-11-24.5-25.8v-0.2c0-13.8,9.8-25.4,23.6-25.4c8.8,0,14.1,2.9,18.9,7.1l4.5-5.3C462.2,3,455.7,0,445.3,0
		c-18.6,0-31.1,15.1-31.1,32.1v0.2C414.2,50,426.3,64.1,445.7,64.1"/>
	<path class="st0" d="M235.3,8.8c-5.6,0-10.1,4.6-10.2,10.2c0,3.3,3.1,10,10.2,17.9c7.1-7.9,10.2-14.5,10.2-17.9
		C245.4,13.4,240.9,8.8,235.3,8.8 M265.9,65.8l-3.6-1.4c-9.1-3.5-18.8-9.8-27-17.6c-8.3,7.8-18,14.2-27,17.6l-3.6,1.4l-18-64.7h7.2
		l15.4,55.4c7.2-3.3,14.6-8.4,21.1-14.6c-4.7-5.1-12.4-14.9-12.3-22.9c0-4.6,1.8-8.9,5-12.1c3.2-3.2,7.5-5,12.1-5
		c4.6,0,8.9,1.8,12.1,5c3.2,3.2,5,7.5,5,12.1c0.1,8.1-7.6,17.8-12.3,22.9c6.5,6.2,14,11.3,21.1,14.6l15.4-55.4h7.2L265.9,65.8z"/>
</g>
</svg>
